# xmcd
# 
# Track frame offsets:
#     150
#     18446
#     32433
#     49659
#     61863
#     80572
#     104305
#     122639
#     151498
#     170167
#     183360
#     202154
#     220461
#     240421
#     258943
#     284754
#     295777
#     313803
# 
# Disc length: 4414
# 
# Revision: 7
# Processed by: cddbd v1.5.2PL0 Copyright (c) Steve Scherf et al.
# Submitted via: fre:ac v1.0.31
# 
DISCID=09113c12
DTITLE=Alligator Records - Alligator Records 35 X 35 Disc 2
DYEAR=2006
DGENRE=Blues
TTITLE0=Lord, I Wonder
TTITLE1=Can't Lie to Me
TTITLE2=Lollipop Mama
TTITLE3=Wild Women Don't Have the Blues
TTITLE4=River Hip Mama
TTITLE5=Short Fuse Blues
TTITLE6=Lonesome Stranger
TTITLE7=Bad Love
TTITLE8=Bad Luck
TTITLE9=Keep Your Lamp Trimmed and Burning
TTITLE10=Salt in My Wounds
TTITLE11=I Need Your Love in My Life
TTITLE12=Mean Old Lady
TTITLE13=Spreaking in Tongues
TTITLE14=Let the Tears Roll Down
TTITLE15=That's Right!
TTITLE16=Old School
TTITLE17=A Dying Man's Plea
EXTD=
EXTT0=
EXTT1=
EXTT2=
EXTT3=
EXTT4=
EXTT5=
EXTT6=
EXTT7=
EXTT8=
EXTT9=
EXTT10=
EXTT11=
EXTT12=
EXTT13=
EXTT14=
EXTT15=
EXTT16=
EXTT17=
PLAYORDER=
